<svg xmlns:rdf="http://www.w3.org/1999/02/22-rdf-syntax-ns#" xmlns="http://www.w3.org/2000/svg" xmlns:cc="http://creativecommons.org/ns#" xmlns:dc="http://purl.org/dc/elements/1.1/" version="1.1" x="0px" y="0px" viewBox="0 0 100 100"><g transform="translate(0,-952.36218)"><path style="baseline-shift:baseline;block-progression:tb;direction:ltr;text-indent:0;enable-background:accumulate;text-transform:none;" d="m67.232,970.99c-1.25,0.082-2.6129,0.8439-3.0625,1.6875-0.4495,0.8437,0.1875,1.457,1.4375,1.375,1.2499-0.082,2.6441-0.8438,3.0937-1.6875,0.4495-0.8436-0.2188-1.4569-1.4687-1.375zm-10.5,1.8125c-1.3476,0.022-3.6761,0.4356-2.4688,1.75,1.2987-1.1613,0.7202,1.7364,1.1563,2.0938,0.5304,1.1197,1.9745-2.4925,2.1562-3.75-0.069-0.057-0.3945-0.1011-0.8437-0.094zm18.625,2.4688c-7.2644-0.1305-18.233,1.8822-19.281,3.6562-0.4552,0.781-0.3398,1.4998,0.4375,2.2813,1.1649,1.1711,4.4278,0.2097,6.625,0.062,4.1073-0.2382,9.8678,2.7666,12.844,4.7812,4.4393,2.9765,8.0073,6.2417,11.344,7.3125,4.1142,1.3206,7.4577-0.2208,6.5313-3.9375-0.3323-4.118-4.1964-10.586-14.219-13.687-1.1161-0.2862-2.6048-0.4386-4.2812-0.4687zm-27.125,3.0625c0.013-0.01-0.2229,0.2227-0.5625,0.625-0.098,0.1159-0.1542,0.1762-0.2188,0.25a1.0001,1.0001,0,0,1,0.062,0.062c0.095,0.1015,0.1699,0.1714,0.375,0.3437l6.25,5.2813c0.264,0.2218,0.4452,0.3047,0.5313,0.3437-0.042-0.01,0.051-0.09,0.3437-0.4375,0.304-0.36,0.4013-0.4694,0.4063-0.4062-0.048-0.073-0.1634-0.2384-0.4375-0.4688l-6.2813-5.25c-0.2621-0.2202-0.409-0.3249-0.4687-0.3437zm35.031,0.625a1.0001,1.0001,0,0,1,0.031,0,1.0001,1.0001,0,0,1,0.094,0,1.0001,1.0001,0,0,1,0.6875,0.1875c4.5864,3.0775,6.3148,4.7258,8.1563,8.7812a1.0001,1.0001,0,1,1,-1.8125,0.8125c-1.743-3.8383-2.9466-4.903-7.4688-7.9375a1.0001,1.0001,0,0,1,0.3125,-1.8437zm-36.406,2.4062-11.531,11.812a1.0001,1.0001,0,0,1,-0.9375,0.2813c-2.496-0.5476-4.4126-0.6145-6.0312-0.1563-1.6187,0.4583-3.0116,1.4346-4.4688,3.2188l-16.813,20.48a1.0001,1.0001,0,0,1,-0.062,0.062c-0.8137,0.8434-1.175,2.7705-0.9687,4.5938,0.1031,0.9116,0.3396,1.7882,0.625,2.4375,0.2853,0.6492,0.6632,1.034,0.7812,1.0937a1.0001,1.0001,0,0,1,0.1875,0.125l9.2188,7.6875a1.0001,1.0001,0,0,1,0.031,0c0.8516,0.7193,2.298,0.9462,3.8125,0.6563,1.5145-0.29,3.0174-1.1038,3.875-2.1563l2.9062-3.4687-9.6562-8.125a1.0001,1.0001,0,0,1,-0.125,-1.4063l12-14.219a1.0001,1.0001,0,0,1,1.4062,-0.125l9.5938,8.0625,1.9062-2.25c1.1305-1.36,1.3958-2.7587,1.2813-4.4062-0.1146-1.6474-0.6686-3.4934-1.25-5.3438a1.0001,1.0001,0,0,1,0.1562,-0.87501l9.75-13.125-5.6875-4.8125zm20.125,3.6875c-0.1057,0.015-0.205,0.064-0.2813,0.125-0.6105,0.4876,0.041,2.291,1.4375,4.0313,1.3964,1.7402,3.0144,2.7376,3.625,2.25,0.6106-0.4875-0.01-2.291-1.4062-4.0313-1.2219-1.5227-2.6355-2.4834-3.375-2.375zm-36.406,21.219-10.688,12.719,8.8438,7.4375,10.719-12.688-8.875-7.4687z"/></g></svg>